<svg version="1.1" id="Layer_1" xmlns="http://www.w3.org/2000/svg" xmlns:xlink="http://www.w3.org/1999/xlink" x="0px" y="0px"
	 width="100%" viewBox="0 0 238 232" enable-background="new 0 0 238 232" xml:space="preserve">
<path fill="#FFFFFF" opacity="1.000000" stroke="none" 
	d="
M163.000000,233.000000 
	C108.666672,233.000000 54.833340,233.000000 1.000007,233.000000 
	C1.000005,155.666672 1.000005,78.333351 1.000002,1.000018 
	C80.333321,1.000012 159.666641,1.000012 238.999969,1.000006 
	C238.999985,78.333321 238.999985,155.666641 239.000000,232.999969 
	C213.833328,233.000000 188.666672,233.000000 163.000000,233.000000 
M99.500000,202.037231 
	C121.992645,202.037216 144.485306,202.052521 166.977936,202.032547 
	C186.135986,202.015533 200.993042,187.298172 201.023636,168.205276 
	C201.073318,137.215530 201.072754,106.225548 200.982193,75.235992 
	C200.973083,72.120430 200.643753,68.865562 199.704575,65.916916 
	C195.324036,52.163574 183.882355,41.251350 164.180542,41.339108 
	C135.024033,41.468987 105.866348,41.325680 76.709656,41.432934 
	C73.111084,41.446175 69.366257,41.787235 65.943954,42.820290 
	C49.525627,47.776310 40.571358,59.895447 40.434185,77.960533 
	C40.209007,107.615746 40.394981,137.273926 40.365894,166.930832 
	C40.344456,188.788940 58.129745,202.917023 76.509651,202.091232 
	C83.825806,201.762527 91.169075,202.037231 99.500000,202.037231 
z"/>
<path fill="#f58c58" opacity="1.000000" stroke="none" 
	d="
M99.000000,202.037231 
	C91.169075,202.037231 83.825806,201.762527 76.509651,202.091232 
	C58.129745,202.917023 40.344456,188.788940 40.365894,166.930832 
	C40.394981,137.273926 40.209007,107.615746 40.434185,77.960533 
	C40.571358,59.895447 49.525627,47.776310 65.943954,42.820290 
	C69.366257,41.787235 73.111084,41.446175 76.709656,41.432934 
	C105.866348,41.325680 135.024033,41.468987 164.180542,41.339108 
	C183.882355,41.251350 195.324036,52.163574 199.704575,65.916916 
	C200.643753,68.865562 200.973083,72.120430 200.982193,75.235992 
	C201.072754,106.225548 201.073318,137.215530 201.023636,168.205276 
	C200.993042,187.298172 186.135986,202.015533 166.977936,202.032547 
	C144.485306,202.052521 121.992645,202.037216 99.000000,202.037231 
M125.189987,101.935143 
	C125.464439,98.173882 125.738884,94.412613 126.032196,90.392868 
	C118.123421,90.392868 110.706375,90.392868 103.183655,90.392868 
	C99.437416,99.946159 95.719154,109.428131 91.654221,119.794136 
	C88.567162,109.896980 85.812950,101.066948 82.949471,91.886597 
	C75.716980,92.223495 68.635651,92.553345 61.169537,92.901115 
	C61.169537,112.472313 61.169537,131.684387 61.169537,150.718781 
	C67.525093,150.718781 73.600754,150.718781 80.145432,150.718781 
	C80.145432,142.183640 80.145432,134.090118 80.145432,125.996613 
	C82.163483,130.886841 83.684174,135.761200 84.995880,140.691177 
	C86.777489,147.387238 86.708923,147.405487 94.203323,146.653763 
	C96.836784,138.956665 99.501335,131.168671 102.165886,123.380684 
	C102.495461,123.470787 102.825027,123.560890 103.154602,123.650993 
	C103.154602,133.403183 103.154602,143.155365 103.154602,152.611633 
	C109.575127,152.611633 115.656876,152.611633 122.130615,152.611633 
	C123.163574,135.680267 124.164413,119.275215 125.189987,101.935143 
M176.011734,142.505417 
	C171.563370,134.946259 167.115005,127.387100 162.569138,119.662262 
	C168.792068,112.165771 174.871506,104.842148 181.070572,97.374405 
	C179.805969,97.001900 179.018234,96.747299 178.218582,96.538284 
	C175.010757,95.699791 171.805649,94.849609 168.587830,94.050926 
	C160.704956,92.094353 160.737183,92.128922 156.108505,98.838676 
	C153.904083,102.034218 151.538177,105.118370 148.439255,109.355148 
	C149.024368,102.744888 149.457382,97.852974 149.939362,92.407745 
	C143.189362,92.107674 136.831818,91.825043 129.650436,91.505791 
	C129.650436,112.077194 129.650436,131.910980 129.650436,151.415405 
	C135.050217,151.415405 140.607239,151.415405 146.398575,151.415405 
	C146.693008,145.828491 146.957245,140.814789 147.265564,134.964752 
	C151.234802,140.358978 154.505188,145.125748 158.166031,149.570938 
	C159.188843,150.812912 161.458328,151.880875 162.993454,151.694000 
	C168.352020,151.041718 173.639481,149.805176 179.443161,148.697281 
	C178.252029,146.603210 177.281937,144.897766 176.011734,142.505417 
z"/>
<path fill="#FCFCFC" opacity="1.000000" stroke="none" 
	d="
M125.177628,102.402657 
	C124.164413,119.275215 123.163574,135.680267 122.130615,152.611633 
	C115.656876,152.611633 109.575127,152.611633 103.154602,152.611633 
	C103.154602,143.155365 103.154602,133.403183 103.154602,123.650993 
	C102.825027,123.560890 102.495461,123.470787 102.165886,123.380684 
	C99.501335,131.168671 96.836784,138.956665 94.203323,146.653763 
	C86.708923,147.405487 86.777489,147.387238 84.995880,140.691177 
	C83.684174,135.761200 82.163483,130.886841 80.145432,125.996613 
	C80.145432,134.090118 80.145432,142.183640 80.145432,150.718781 
	C73.600754,150.718781 67.525093,150.718781 61.169537,150.718781 
	C61.169537,131.684387 61.169537,112.472313 61.169537,92.901115 
	C68.635651,92.553345 75.716980,92.223495 82.949471,91.886597 
	C85.812950,101.066948 88.567162,109.896980 91.654221,119.794136 
	C95.719154,109.428131 99.437416,99.946159 103.183655,90.392868 
	C110.706375,90.392868 118.123421,90.392868 126.032196,90.392868 
	C125.738884,94.412613 125.464439,98.173882 125.177628,102.402657 
z"/>
<path fill="#FAFAFA" opacity="1.000000" stroke="none" 
	d="
M176.161789,142.848877 
	C177.281937,144.897766 178.252029,146.603210 179.443161,148.697281 
	C173.639481,149.805176 168.352020,151.041718 162.993454,151.694000 
	C161.458328,151.880875 159.188843,150.812912 158.166031,149.570938 
	C154.505188,145.125748 151.234802,140.358978 147.265564,134.964752 
	C146.957245,140.814789 146.693008,145.828491 146.398575,151.415405 
	C140.607239,151.415405 135.050217,151.415405 129.650436,151.415405 
	C129.650436,131.910980 129.650436,112.077194 129.650436,91.505791 
	C136.831818,91.825043 143.189362,92.107674 149.939362,92.407745 
	C149.457382,97.852974 149.024368,102.744888 148.439255,109.355148 
	C151.538177,105.118370 153.904083,102.034218 156.108505,98.838676 
	C160.737183,92.128922 160.704956,92.094353 168.587830,94.050926 
	C171.805649,94.849609 175.010757,95.699791 178.218582,96.538284 
	C179.018234,96.747299 179.805969,97.001900 181.070572,97.374405 
	C174.871506,104.842148 168.792068,112.165771 162.569138,119.662262 
	C167.115005,127.387100 171.563370,134.946259 176.161789,142.848877 
z"/>
</svg>
